<?xml version="1.0" standalone="no"?><!DOCTYPE svg PUBLIC "-//W3C//DTD SVG 1.1//EN" "http://www.w3.org/Graphics/SVG/1.1/DTD/svg11.dtd"><svg class="icon" width="200px" height="200.00px" viewBox="0 0 1024 1024" version="1.1" xmlns="http://www.w3.org/2000/svg"><path  d="M512 64c247.424 0 448 200.576 448 448S759.424 960 512 960 64 759.424 64 512 264.576 64 512 64z m0 64c-212.077 0-384 171.923-384 384s171.923 384 384 384 384-171.923 384-384-171.923-384-384-384z m154.856 173.373c12.497 12.496 12.497 32.758 0 45.254l-89.987 89.987h53.245c17.674 0 32 14.327 32 32 0 17.674-14.326 32-32 32h-92v50h92c17.674 0 32 14.327 32 32 0 17.674-14.326 32-32 32h-92v94c0 17.674-14.326 32-32 32-17.673 0-32-14.326-32-32v-94h-92c-17.673 0-32-14.326-32-32 0-17.673 14.327-32 32-32h92v-50h-92c-17.673 0-32-14.326-32-32 0-17.673 14.327-32 32-32h64.245l-89.986-89.987C344 334.256 343.877 314.274 356 301.75l0.372-0.377C368.744 289 388.726 288.877 401.25 301l0.377 0.372 109.987 109.986 109.988-109.986c12.496-12.497 32.758-12.497 45.254 0z" /></svg>